# xmcd
#
# Track frame offsets: 
#        150
#        19210
#        35974
#        53791
#        68258
#        86337
#        102452
#        117325
#        132805
#        146078
#        158658
#        172807
#        188020
#        202220
#        216750
#        231679
#        245750
#        259298
#        272850
#        286385
#        298318
#        309506
#        321651
#        333576
#        345280
#
# Disc length: 4755 seconds
#
# Revision: 2
# Processed by: cddbd v1.5.2PL0 Copyright (c) Steve Scherf et al.
# Submitted via: ExactAudioCopy v1.3
#
DISCID=90129119
DTITLE=Original Dixieland Jazz Band - The Essential Collection
DYEAR=2006
DGENRE=Jazz
TTITLE0=I'm Forever Blowing Bubbles
TTITLE1=Mammy O'Mine
TTITLE2=I've Lost My Heart in Dixieland
TTITLE3=Sphinx
TTITLE4=Alice Blue Gown
TTITLE5=Soudan (alternate version)
TTITLE6=Broadway Rose
TTITLE7=Sweet Mama (Papa's Gettin' Mad)
TTITLE8=Home Again Blues
TTITLE9=Crazy Blues
TTITLE10=Jazz Me Blues
TTITLE11=St. Louis Blues
TTITLE12=Royal Garden Blues
TTITLE13=Dangerous Blues
TTITLE14=Bow Wow Blues (My Mama Treats Me Like a Dog)
TTITLE15=Toddlin' Blues
TTITLE16=Some of These Days
TTITLE17=Tiger Rag (alternate version)
TTITLE18=Barnyard Blues
TTITLE19=Skeleton Jangle
TTITLE20=Clarinet Marmalade (alternate version)
TTITLE21=Bluin' the Blues (alternate version)
TTITLE22=Tiger Rag (alternate version 2)
TTITLE23=Barnyard Blues (alternate version)
TTITLE24=Original Dixieland One Step (alternate version)
EXTD=YEAR: 2001
EXTT0=
EXTT1=
EXTT2=
EXTT3=
EXTT4=
EXTT5=
EXTT6=
EXTT7=
EXTT8=
EXTT9=
EXTT10=
EXTT11=
EXTT12=
EXTT13=
EXTT14=
EXTT15=
EXTT16=
EXTT17=
EXTT18=
EXTT19=
EXTT20=
EXTT21=
EXTT22=
EXTT23=
EXTT24=
PLAYORDER=
